<svg width="230" height="244" viewBox="0 0 230 244" fill="none" xmlns="http://www.w3.org/2000/svg">
<path fill-rule="evenodd" clip-rule="evenodd" d="M111.147 142.297C112.333 139.865 113 137.127 113 134.231C113 124.162 104.941 116 95 116C85.0589 116 77 124.162 77 134.231C77 137.127 77.6667 139.865 78.8531 142.297C82.6609 140.051 88.4795 138.615 95 138.615C101.52 138.615 107.339 140.051 111.147 142.297Z" fill="#FDFFFF"/>
<path fill-rule="evenodd" clip-rule="evenodd" d="M105.131 139.874C106.598 137.83 107.462 135.323 107.462 132.615C107.462 125.733 101.882 120.154 95 120.154C88.1177 120.154 82.5385 125.733 82.5385 132.615C82.5385 135.323 83.4023 137.83 84.8694 139.874C87.8662 139.072 91.3214 138.615 95 138.615C98.6786 138.615 102.134 139.072 105.131 139.874Z" fill="#351802"/>
<circle cx="92" cy="127" r="4" fill="#FDFFFF"/>
<path fill-rule="evenodd" clip-rule="evenodd" d="M119.853 142.297C118.667 139.865 118 137.127 118 134.231C118 124.162 126.059 116 136 116C145.941 116 154 124.162 154 134.231C154 137.127 153.333 139.865 152.147 142.297C148.339 140.051 142.52 138.615 136 138.615C129.48 138.615 123.661 140.051 119.853 142.297Z" fill="#FDFFFF"/>
<path fill-rule="evenodd" clip-rule="evenodd" d="M125.869 139.874C124.402 137.83 123.538 135.323 123.538 132.615C123.538 125.733 129.118 120.154 136 120.154C142.882 120.154 148.462 125.733 148.462 132.615C148.462 135.323 147.598 137.83 146.131 139.874C143.134 139.072 139.679 138.615 136 138.615C132.321 138.615 128.866 139.072 125.869 139.874Z" fill="#351802"/>
<circle cx="4" cy="4" r="4" transform="matrix(-1 0 0 1 143 123)" fill="#FDFFFF"/>
</svg>
