<svg width="230" height="244" viewBox="0 0 230 244" fill="none" xmlns="http://www.w3.org/2000/svg">
<path d="M122 133.5C122 126.044 128.044 120 135.5 120H145C147.209 120 149 121.791 149 124V134.5C149 141.956 142.956 148 135.5 148H126C123.791 148 122 146.209 122 144V133.5Z" fill="#FEFEFE"/>
<circle cx="133.5" cy="137.5" r="5.5" fill="#14AF8A"/>
<path fill-rule="evenodd" clip-rule="evenodd" d="M135.5 120C128.044 120 122 126.044 122 133.5V135H148.991C148.997 134.834 149 134.667 149 134.5V124C149 121.791 147.209 120 145 120H135.5Z" fill="#7210B5"/>
<path d="M107 133.5C107 126.044 100.956 120 93.5 120H84C81.7909 120 80 121.791 80 124V134.5C80 141.956 86.0442 148 93.5 148H103C105.209 148 107 146.209 107 144V133.5Z" fill="#FEFEFE"/>
<circle cx="5.5" cy="5.5" r="5.5" transform="matrix(-1 0 0 1 101 132)" fill="#14AF8A"/>
<path fill-rule="evenodd" clip-rule="evenodd" d="M93.5 120C100.956 120 107 126.044 107 133.5V135H80.0091C80.003 134.834 80 134.667 80 134.5V124C80 121.791 81.7909 120 84 120H93.5Z" fill="#7210B5"/>
</svg>
