<svg width="230" height="244" viewBox="0 0 230 244" fill="none" xmlns="http://www.w3.org/2000/svg">
<path d="M150.42 139.238C148.562 145.585 142.705 150.224 135.764 150.224C128.967 150.224 123.218 145.779 121.232 139.64C121.131 139.331 121.033 139.023 120.953 138.706C120.651 137.499 120.488 136.242 120.488 134.94C120.488 134.354 120.532 133.778 120.596 133.207C121.3 126.998 125.71 121.92 131.563 120.247C132.347 120.022 133.167 119.869 134.001 119.77C134.577 119.7 135.163 119.661 135.764 119.661C137.391 119.661 138.96 119.92 140.436 120.395C141.025 120.585 141.607 120.808 142.168 121.072C147.406 123.496 151.034 128.791 151.034 134.94C151.034 136.436 150.817 137.872 150.42 139.238ZM108.741 138.706C107.067 145.327 101.075 150.224 93.9359 150.224C87.1481 150.224 81.4096 145.789 79.4179 139.665C79.3733 139.519 79.3131 139.381 79.2743 139.238C78.8768 137.872 78.6596 136.436 78.6596 134.94C78.6596 134.37 78.6984 133.807 78.7624 133.246C79.3597 127.832 82.7788 123.267 87.5263 121.072C88.9808 120.395 90.5595 119.939 92.2215 119.755C92.7839 119.691 93.3541 119.661 93.9359 119.661C95.3904 119.661 96.8003 119.869 98.1307 120.247C98.2994 120.296 98.4623 120.356 98.6272 120.41C104.763 122.394 109.206 128.141 109.206 134.94C109.206 136.242 109.043 137.499 108.741 138.706ZM150.4 116H79.2937C76.9219 116 75 117.923 75 120.296V134.94C75 145.402 83.475 153.886 93.9359 153.886C102.975 153.886 110.537 147.543 112.414 139.057C112.443 138.945 112.523 138.582 112.532 138.522C112.717 137.404 113.68 136.55 114.846 136.55C116.023 136.55 116.987 137.414 117.166 138.541C117.169 138.596 117.249 138.933 117.274 139.048C119.151 147.533 126.713 153.886 135.764 153.886C146.213 153.886 154.694 145.402 154.694 134.94V120.296C154.694 117.923 152.772 116 150.4 116Z" fill="#1652A4"/>
</svg>
