<svg width="230" height="244" viewBox="0 0 230 244" fill="none" xmlns="http://www.w3.org/2000/svg">
<path fill-rule="evenodd" clip-rule="evenodd" d="M83 157.956C83 169.334 93.8242 179.604 110.06 172.839L110.077 172.804C111.958 171.985 113.58 170.727 114.796 169.169C116.012 170.727 117.634 171.985 119.515 172.804L119.532 172.839C135.768 179.604 146.592 169.334 146.592 157.956C146.592 150.514 142.758 147.244 142.533 148.146C142.252 148.746 142.008 149.454 141.755 150.189C140.563 153.655 139.167 157.715 132.688 153.751C130.538 151.948 127.707 150.852 124.605 150.852C120.581 150.852 117.013 152.696 114.796 155.537C112.579 152.696 109.011 150.852 104.987 150.852C101.885 150.852 99.0537 151.948 96.9036 153.751C90.425 157.715 89.0286 153.655 87.8365 150.189L87.8365 150.189C87.5837 149.454 87.34 148.746 87.0591 148.146C86.8336 147.244 83 150.514 83 157.956Z" fill="#5B3B0D"/>
</svg>
