<svg width="230" height="244" viewBox="0 0 230 244" fill="none" xmlns="http://www.w3.org/2000/svg">
<path d="M134.598 210.854C135.197 209.011 137.803 209.011 138.402 210.854L139.98 215.71C140.248 216.534 141.016 217.092 141.882 217.092L146.988 217.092C148.926 217.092 149.731 219.571 148.164 220.71L144.033 223.711C143.332 224.221 143.039 225.124 143.306 225.948L144.884 230.804C145.483 232.646 143.374 234.179 141.806 233.04L137.676 230.039C136.975 229.529 136.025 229.529 135.324 230.039L131.194 233.04C129.626 234.179 127.517 232.646 128.116 230.804L129.694 225.948C129.961 225.124 129.668 224.221 128.967 223.711L124.836 220.71C123.269 219.571 124.074 217.092 126.012 217.092L131.118 217.092C131.984 217.092 132.752 216.534 133.02 215.71L134.598 210.854Z" fill="#FFED02"/>
</svg>
