<svg width="230" height="244" viewBox="0 0 230 244" fill="none" xmlns="http://www.w3.org/2000/svg">
<path d="M161.781 57.2295C155.964 48.8666 145.994 43.3459 134.66 43.3459C129.911 43.3459 125.409 44.3205 121.34 46.0604C115.458 40.4639 107.335 37 98.3561 37C84.6758 37 72.9785 45.04 68.1843 56.4183C50.846 57.076 37 70.6387 37 87.2867C37 97.5888 42.3078 106.707 50.4602 112.319C48.8817 115.164 47.9866 118.402 47.9866 121.84C47.9866 131.967 66.5 144.5 68.5 142C70.5 139.5 69 133 70 128.5C71 124 78 119 78 119C78 119 83.179 116.005 88.5287 112.319C93.4718 108.917 97.3625 104.228 99.6642 98.7667C103.932 98.6053 107.982 97.6606 111.676 96.0821C113.565 95.2729 115.357 94.2983 117.036 93.1742C117.944 96.5165 119.43 99.6357 121.378 102.44C124.958 107.586 130.109 111.652 136.184 114.02C139.984 115.502 144.143 116.324 148.499 116.324C153.937 116.324 158.5 123.5 160 126C160 126 160.5 136 163.5 137C166.5 138 178.881 126.785 178.881 117.537C178.881 112.614 177.051 108.098 174.003 104.568C178.38 99.3048 181 92.658 181 85.4252C181 72.863 173.105 62.0567 161.781 57.2295Z" fill="#FFFDDD"/>
</svg>
