<svg width="230" height="244" viewBox="0 0 230 244" fill="none" xmlns="http://www.w3.org/2000/svg">
<path d="M47.1935 39.3426C53.0827 33.4318 61.8627 38.5012 68.1494 39.3426C74.4362 40.1841 79.4657 31.7707 87.848 36.398C96.2304 41.0252 88.9755 47.6838 100.422 54.066C104.194 56.1692 109.743 57.2213 111 69C111.26 71.44 110.948 73.5989 110.272 75.5H125.5C125.779 79.7067 121.797 99.9186 106.708 101.181C94.0807 102.237 93.2966 99.0773 82.3995 101.181C73.6818 102.863 69.6862 110.716 68.5686 115.904L68.1495 120.952V126C66.8921 124.317 64.3774 126.841 62.2818 121.793C61.7378 120.483 61.5466 115.306 61.7283 110.007C53.9323 111.909 46.1366 107.838 44.6788 96.1326C43.2917 84.9945 33.2876 89.554 30.4288 79.306C27.4949 68.7892 40.4876 65.8445 43.0023 59.1138C45.517 52.3832 39.6494 46.9145 47.1935 39.3426Z" fill="#5B3B0D"/>
<path d="M183.32 39.3426C177.431 33.4318 168.651 38.5012 162.364 39.3426C156.077 40.1841 151.048 31.7707 142.665 36.398C134.283 41.0252 141.538 47.6838 130.092 54.066C126.32 56.1692 120.771 57.2213 119.514 69C119.253 71.44 119.565 73.5989 120.241 75.5H105.014C104.734 79.7067 108.717 99.9186 123.805 101.181C136.433 102.237 137.217 99.0773 148.114 101.181C156.832 102.863 160.827 110.716 161.945 115.904L162.364 120.952V126C163.621 124.317 166.136 126.841 168.232 121.793C168.776 120.483 168.967 115.306 168.785 110.007C176.581 111.909 184.377 107.838 185.835 96.1326C187.222 84.9945 197.226 89.554 200.085 79.306C203.019 68.7892 190.026 65.8445 187.511 59.1138C184.996 52.3832 190.864 46.9145 183.32 39.3426Z" fill="#5B3B0D"/>
<ellipse cx="82.4745" cy="78.3243" rx="5.47454" ry="5.32432" fill="#FAA829"/>
<ellipse cx="66.4745" cy="94.3243" rx="5.47454" ry="5.32432" fill="#FAA829"/>
<ellipse cx="72.159" cy="84.0582" rx="7.15901" ry="6.96257" fill="#FAA829"/>
<ellipse cx="5.47454" cy="5.32432" rx="5.47454" ry="5.32432" transform="matrix(-1 0 0 1 152.949 73)" fill="#FAA829"/>
<ellipse cx="5.47454" cy="5.32432" rx="5.47454" ry="5.32432" transform="matrix(-1 0 0 1 168.949 89)" fill="#FAA829"/>
<ellipse cx="7.15901" cy="6.96257" rx="7.15901" ry="6.96257" transform="matrix(-1 0 0 1 164.949 77.0956)" fill="#FAA829"/>
</svg>
