<svg width="230" height="244" viewBox="0 0 230 244" fill="none" xmlns="http://www.w3.org/2000/svg">
<circle cx="164.5" cy="114.5" r="9.5" fill="#88401F"/>
<circle cx="66.5" cy="114.5" r="9.5" fill="#88401F"/>
<path d="M114.827 42C91.8155 42 72.6105 58.2156 67.944 79.8372H161.712C157.045 58.2156 137.84 42 114.827 42Z" fill="#EC0055"/>
<path d="M166.158 80.5927C165.045 80.1131 163.819 79.8372 162.529 79.8372H67.1272C65.8371 79.8372 64.615 80.1131 63.4977 80.5927C60.2633 81.9988 58 85.2184 58 88.9774V103.437C58 105.93 59 108.186 60.611 109.835C62.2714 111.521 64.5779 112.571 67.1272 112.571H162.529C166.135 112.571 169.244 110.473 170.73 107.437C171.318 106.231 171.656 104.876 171.656 103.437V88.9774C171.656 85.2184 169.397 81.9988 166.158 80.5927Z" fill="#1652A4"/>
<path d="M67.2177 105.551C67.2177 107.126 65.9358 108.407 64.3618 108.407C62.7878 108.407 61.5121 107.126 61.5121 105.551V86.8633C61.5121 85.2884 62.7878 84.0059 64.3618 84.0059C65.9358 84.0059 67.2177 85.2884 67.2177 86.8633V105.551Z" fill="#3D73BD"/>
<path d="M77.2564 105.551C77.2564 107.126 75.9766 108.407 74.4006 108.407C72.8266 108.407 71.5509 107.126 71.5509 105.551V86.8633C71.5509 85.2884 72.8266 84.0059 74.4006 84.0059C75.9766 84.0059 77.2564 85.2884 77.2564 86.8633V105.551Z" fill="#3D73BD"/>
<path d="M87.2951 105.551C87.2951 107.126 86.0153 108.407 84.4413 108.407C82.8652 108.407 81.5854 107.126 81.5854 105.551V86.8633C81.5854 85.2884 82.8652 84.0059 84.4413 84.0059C86.0153 84.0059 87.2951 85.2884 87.2951 86.8633V105.551Z" fill="#3D73BD"/>
<path d="M97.3297 105.551C97.3297 107.126 96.056 108.407 94.48 108.407C92.906 108.407 91.6262 107.126 91.6262 105.551V86.8633C91.6262 85.2884 92.906 84.0059 94.48 84.0059C96.056 84.0059 97.3297 85.2884 97.3297 86.8633V105.551Z" fill="#3D73BD"/>
<path d="M107.368 105.551C107.368 107.126 106.095 108.407 104.519 108.407C102.938 108.407 101.665 107.126 101.665 105.551V86.8633C101.665 85.2884 102.938 84.0059 104.519 84.0059C106.095 84.0059 107.368 85.2884 107.368 86.8633V105.551Z" fill="#3D73BD"/>
<path d="M117.409 105.551C117.409 107.126 116.133 108.407 114.553 108.407C112.979 108.407 111.703 107.126 111.703 105.551V86.8633C111.703 85.2884 112.979 84.0059 114.553 84.0059C116.133 84.0059 117.409 85.2884 117.409 86.8633V105.551Z" fill="#3D73BD"/>
<path d="M127.448 105.551C127.448 107.126 126.168 108.407 124.594 108.407C123.018 108.407 121.744 107.126 121.744 105.551V86.8633C121.744 85.2884 123.018 84.0059 124.594 84.0059C126.168 84.0059 127.448 85.2884 127.448 86.8633V105.551Z" fill="#3D73BD"/>
<path d="M137.488 105.551C137.488 107.126 136.207 108.407 134.633 108.407C133.059 108.407 131.783 107.126 131.783 105.551V86.8633C131.783 85.2884 133.059 84.0059 134.633 84.0059C136.207 84.0059 137.488 85.2884 137.488 86.8633V105.551Z" fill="#3D73BD"/>
<path d="M147.527 105.551C147.527 107.126 146.247 108.407 144.671 108.407C143.097 108.407 141.818 107.126 141.818 105.551V86.8633C141.818 85.2884 143.097 84.0059 144.671 84.0059C146.247 84.0059 147.527 85.2884 147.527 86.8633V105.551Z" fill="#3D73BD"/>
<path d="M157.562 105.551C157.562 107.126 156.286 108.407 154.712 108.407C153.136 108.407 151.856 107.126 151.856 105.551V86.8633C151.856 85.2884 153.136 84.0059 154.712 84.0059C156.286 84.0059 157.562 85.2884 157.562 86.8633V105.551Z" fill="#3D73BD"/>
<path d="M167.6 105.551C167.6 107.126 166.327 108.407 164.751 108.407C163.171 108.407 161.897 107.126 161.897 105.551V86.8633C161.897 85.2884 163.171 84.0059 164.751 84.0059C166.327 84.0059 167.6 85.2884 167.6 86.8633V105.551Z" fill="#3D73BD"/>
</svg>
