<svg width="230" height="244" viewBox="0 0 230 244" fill="none" xmlns="http://www.w3.org/2000/svg">
<path fill-rule="evenodd" clip-rule="evenodd" d="M59.9609 90.4391C69.5579 73.6481 90.5459 62 114.893 62C146.402 62 172.285 81.5091 175.133 106.427C175.738 109.208 175.88 112.08 175.393 115C172.324 133.415 162.719 129.146 156.692 126.467C155.846 126.091 155.07 125.746 154.393 125.5C150.859 124.215 140.924 121.897 134.274 120.405C130.296 119.512 127.021 116.697 125.578 112.884L118.315 93.6899C117.962 92.756 116.556 92.8414 116.302 93.8069C115.019 98.6686 112.208 107.884 107.893 114.5C100.393 126 60.2367 136 55.3929 120.5C50.5492 105 59.8929 90.5 59.8929 90.5L59.9609 90.4391Z" fill="#FF5C00"/>
</svg>
