<svg width="230" height="244" viewBox="0 0 230 244" fill="none" xmlns="http://www.w3.org/2000/svg">
<rect width="230" height="244" rx="115" fill="#8AE0FB"/>
<path fill-rule="evenodd" clip-rule="evenodd" d="M153 237.574C141.104 241.737 128.317 244 115 244C102.056 244 89.6111 241.861 78 237.918V219C78 204.641 89.6406 193 104 193H127C141.359 193 153 204.641 153 219V237.574Z" fill="#FF5C00"/>
<path d="M103 167H128V196.5C128 203.404 122.404 209 115.5 209V209C108.596 209 103 203.404 103 196.5V167Z" fill="#905940"/>
<circle cx="165.5" cy="134.589" r="12.5" fill="#905940"/>
<circle cx="65.5" cy="134.589" r="12.5" fill="#905940"/>
<path d="M65 128C65 115.908 65 109.862 66.3998 104.919C69.8997 92.5595 79.5595 82.8997 91.9189 79.3998C96.8623 78 102.908 78 115 78V78C127.092 78 133.138 78 138.081 79.3998C150.441 82.8997 160.1 92.5595 163.6 104.919C165 109.862 165 115.908 165 128V138C165 150.092 165 156.138 163.6 161.081C160.1 173.441 150.441 183.1 138.081 186.6C133.138 188 127.092 188 115 188V188C102.908 188 96.8623 188 91.9189 186.6C79.5595 183.1 69.8997 173.441 66.3998 161.081C65 156.138 65 150.092 65 138V128Z" fill="#A56649"/>
<path d="M111.243 155.243C108.899 152.899 108.899 149.101 111.243 146.757L114.778 143.222C115.169 142.831 115.802 142.831 116.192 143.222L119.728 146.757C122.071 149.101 122.071 152.899 119.728 155.243V155.243C117.385 157.586 113.586 157.586 111.243 155.243V155.243Z" fill="#905940"/>
<path d="M105 168C106.6 166.667 110.54 166 115.4 166C120.26 166 123.4 166.889 125 168" stroke="#88401F" stroke-width="5" stroke-linecap="round"/>
</svg>
