<svg width="230" height="244" viewBox="0 0 230 244" fill="none" xmlns="http://www.w3.org/2000/svg">
<rect width="230" height="244" rx="115" fill="#59C015"/>
<path fill-rule="evenodd" clip-rule="evenodd" d="M157 236.089C143.989 241.196 129.822 244 115 244C100.178 244 86.0107 241.196 73 236.089V219C73 204.641 84.6406 193 99 193H131C145.359 193 157 204.641 157 219V236.089Z" fill="#1652A4"/>
<path d="M103 167H128V196.5C128 203.404 122.404 209 115.5 209V209C108.596 209 103 203.404 103 196.5V167Z" fill="#D18643"/>
<circle cx="165.5" cy="134.589" r="12.5" fill="#D18643"/>
<circle cx="65.5" cy="134.589" r="12.5" fill="#D18643"/>
<path d="M66.9483 120.862C65.8869 97.5114 84.5315 78 107.906 78H122.867C145.948 78 164.481 97.0449 163.851 120.118L163.088 148.118C162.482 170.318 144.311 188 122.103 188H109.179C87.2589 188 69.2163 170.759 68.221 148.862L66.9483 120.862Z" fill="#E3A063"/>
<path d="M111.243 155.243C108.899 152.899 108.899 149.101 111.243 146.757L114.778 143.222C115.169 142.831 115.802 142.831 116.192 143.222L119.728 146.757C122.071 149.101 122.071 152.899 119.728 155.243V155.243C117.385 157.586 113.586 157.586 111.243 155.243V155.243Z" fill="#D18643"/>
<path d="M124 165C122.64 168.333 119.291 170 115.16 170C111.029 170 108.36 167.778 107 165" stroke="#D1753A" stroke-width="5" stroke-linecap="round"/>
</svg>
