<svg width="230" height="244" viewBox="0 0 230 244" fill="none" xmlns="http://www.w3.org/2000/svg">
<rect width="230" height="244" rx="115" fill="#FB7EB8"/>
<path d="M65 103C65 89.1929 76.1929 78 90 78H140C153.807 78 165 89.1929 165 103V124C165 137.807 153.807 149 140 149H90C76.1929 149 65 137.807 65 124V103Z" fill="#FFD8BF"/>
<path fill-rule="evenodd" clip-rule="evenodd" d="M151.635 238.042C140.128 241.906 127.809 244 115 244C101.801 244 89.1208 241.776 77.3144 237.683C77.107 236.15 77 234.587 77 233C77 213.118 93.7893 197 114.5 197C135.211 197 152 213.118 152 233C152 234.711 151.876 236.394 151.635 238.042Z" fill="#59C015"/>
<path d="M102 167H127V196.5C127 203.404 121.404 209 114.5 209V209C107.596 209 102 203.404 102 196.5V167Z" fill="#FFB585"/>
<circle cx="164.5" cy="134.589" r="12.5" fill="#FFB585"/>
<circle cx="64.5" cy="134.589" r="12.5" fill="#FFB585"/>
<path d="M79.3553 164.066C59.8291 144.54 59.8291 112.882 79.3553 93.3554L80.7696 91.9411C99.5147 73.196 129.907 73.196 148.652 91.9411L150.066 93.3554C169.592 112.882 169.592 144.54 150.066 164.066L128.853 185.279C121.042 193.09 108.379 193.09 100.569 185.279L79.3553 164.066Z" fill="#FFD8BF"/>
<path d="M111.243 155.243C108.899 152.899 108.899 149.101 111.243 146.757L114.778 143.222C115.169 142.831 115.802 142.831 116.192 143.222L119.728 146.757C122.071 149.101 122.071 152.899 119.728 155.243V155.243C117.385 157.586 113.586 157.586 111.243 155.243V155.243Z" fill="#FFB585"/>
<path d="M121.162 169.194C119.496 171.882 116.754 172.773 113.798 172.071C110.843 171.37 109.396 168.97 109 166.307" stroke="#FF9B5A" stroke-width="5" stroke-linecap="round"/>
</svg>
