<svg width="230" height="244" viewBox="0 0 230 244" fill="none" xmlns="http://www.w3.org/2000/svg">
<rect width="230" height="244" rx="115" fill="#7210B5"/>
<path fill-rule="evenodd" clip-rule="evenodd" d="M146.533 239.623C136.513 242.474 125.935 244 115 244C103.686 244 92.7528 242.366 82.4247 239.321C82.1453 237.264 82 235.152 82 233C82 211.461 96.5508 194 114.5 194C132.449 194 147 211.461 147 233C147 235.258 146.84 237.47 146.533 239.623Z" fill="#EC0055"/>
<path d="M102 167H127V196.5C127 203.404 121.404 209 114.5 209V209C107.596 209 102 203.404 102 196.5V167Z" fill="#F5A26D"/>
<circle cx="164.5" cy="134.589" r="12.5" fill="#F5A26D"/>
<circle cx="64.5" cy="134.589" r="12.5" fill="#F5A26D"/>
<rect x="65" y="78" width="100" height="111" rx="50" fill="#FFB89E"/>
<path d="M65 103C65 89.1929 76.1929 78 90 78H140C153.807 78 165 89.1929 165 103V124C165 137.807 153.807 149 140 149H90C76.1929 149 65 137.807 65 124V103Z" fill="#FFB89E"/>
<path d="M111.243 155.243C108.899 152.899 108.899 149.101 111.243 146.757L114.778 143.222C115.169 142.831 115.802 142.831 116.192 143.222L119.728 146.757C122.071 149.101 122.071 152.899 119.728 155.243V155.243C117.385 157.586 113.586 157.586 111.243 155.243V155.243Z" fill="#F5A26D"/>
<path d="M109 171.5H121" stroke="#F38360" stroke-width="5" stroke-linecap="round"/>
</svg>
