<svg width="230" height="244" viewBox="0 0 230 244" fill="none" xmlns="http://www.w3.org/2000/svg">
<path d="M0 115C0 51.4872 51.4873 0 115 0V0C178.513 0 230 51.4873 230 115V129C230 192.513 178.513 244 115 244V244C51.4873 244 0 192.513 0 129V115Z" fill="#49EFBD"/>
<path fill-rule="evenodd" clip-rule="evenodd" d="M153 237.574C141.104 241.737 128.317 244 115 244C102.056 244 89.6111 241.861 78 237.918V219C78 204.641 89.6406 193 104 193H127C141.359 193 153 204.641 153 219V237.574Z" fill="#FB7EB8"/>
<path d="M103 167H128V196.5C128 203.404 122.404 209 115.5 209V209C108.596 209 103 203.404 103 196.5V167Z" fill="#773A1E"/>
<circle cx="165.5" cy="134.589" r="12.5" fill="#773A1E"/>
<circle cx="65.5" cy="134.589" r="12.5" fill="#773A1E"/>
<path d="M81.9199 100.791C100.03 82.6809 129.392 82.6809 147.501 100.791V100.791C167.495 120.784 165.095 153.862 142.426 170.761L124.273 184.293C118.6 188.522 110.822 188.522 105.148 184.293L84.8886 169.191C63.3299 153.12 61.0481 121.663 80.0618 102.649L81.9199 100.791Z" fill="#905940"/>
<rect x="64" y="78" width="100" height="78" rx="32" fill="#905940"/>
<path d="M110 167C112.931 169.18 115.121 170.563 120 171" stroke="#4B1700" stroke-width="4" stroke-linecap="round"/>
<path d="M111.243 155.243C108.899 152.899 108.899 149.101 111.243 146.757L114.778 143.222C115.169 142.831 115.802 142.831 116.192 143.222L119.728 146.757C122.071 149.101 122.071 152.899 119.728 155.243V155.243C117.385 157.586 113.586 157.586 111.243 155.243V155.243Z" fill="#773A1E"/>
</svg>
