<svg width="230" height="244" viewBox="0 0 230 244" fill="none" xmlns="http://www.w3.org/2000/svg">
<path d="M0 115C0 51.4872 51.4873 0 115 0V0C178.513 0 230 51.4873 230 115V129C230 192.513 178.513 244 115 244V244C51.4873 244 0 192.513 0 129V115Z" fill="#FFFFF9" fill-opacity="0.5"/>
<path d="M101.2 144.785V142.584C101.2 136.5 101.699 131.651 102.697 128.036C103.731 124.422 105.227 121.523 107.187 119.34C109.148 117.121 111.535 115.099 114.351 113.274C116.596 111.842 118.592 110.393 120.338 108.925C122.12 107.422 123.527 105.812 124.561 104.094C125.594 102.376 126.111 100.426 126.111 98.2428C126.111 96.1313 125.612 94.2703 124.614 92.6599C123.617 91.0494 122.244 89.8147 120.498 88.9558C118.788 88.0611 116.881 87.6138 114.778 87.6138C112.676 87.6138 110.698 88.0969 108.845 89.0632C107.027 90.0295 105.53 91.4073 104.354 93.1967C103.214 94.9503 102.626 97.0797 102.59 99.5848H78C78.1069 92.0694 79.8354 85.9139 83.1853 81.1183C86.5709 76.3227 91.0435 72.7797 96.603 70.4893C102.163 68.1631 108.292 67 114.992 67C122.334 67 128.855 68.1452 134.557 70.4356C140.295 72.7261 144.803 76.108 148.082 80.5815C151.361 85.0549 153 90.5305 153 97.0081C153 101.267 152.287 105.025 150.862 108.281C149.436 111.538 147.44 114.419 144.875 116.924C142.344 119.393 139.368 121.648 135.947 123.688C133.274 125.263 131.047 126.909 129.265 128.627C127.519 130.344 126.2 132.313 125.309 134.532C124.418 136.715 123.973 139.399 123.973 142.584V144.785H101.2ZM113.014 180C109.165 180 105.869 178.64 103.125 175.92C100.416 173.2 99.0798 169.908 99.1155 166.043C99.0798 162.249 100.416 159.01 103.125 156.326C105.869 153.606 109.165 152.247 113.014 152.247C116.685 152.247 119.91 153.606 122.69 156.326C125.47 159.01 126.877 162.249 126.913 166.043C126.877 168.619 126.2 170.964 124.882 173.075C123.599 175.187 121.906 176.869 119.803 178.121C117.736 179.374 115.473 180 113.014 180Z" fill="#F5F5F5"/>
</svg>
