<svg width="230" height="244" viewBox="0 0 230 244" fill="none" xmlns="http://www.w3.org/2000/svg">
<rect width="230" height="244" rx="115" fill="#FFE600"/>
<path fill-rule="evenodd" clip-rule="evenodd" d="M153 237.574C141.104 241.737 128.317 244 115 244C102.056 244 89.6111 241.861 78 237.918V219C78 204.641 89.6406 193 104 193H127C141.359 193 153 204.641 153 219V237.574Z" fill="#311203"/>
<path d="M103 167H128V196.5C128 203.404 122.404 209 115.5 209V209C108.596 209 103 203.404 103 196.5V167Z" fill="#B77538"/>
<circle cx="165.5" cy="134.589" r="12.5" fill="#B77538"/>
<circle cx="65.5" cy="134.589" r="12.5" fill="#B77538"/>
<path d="M65 128C65 100.386 87.3858 78 115 78V78C142.614 78 165 100.386 165 128V172C165 180.837 157.837 188 149 188H81C72.1634 188 65 180.837 65 172V128Z" fill="#CB8C51"/>
<path d="M111.243 155.243C108.899 152.899 108.899 149.101 111.243 146.757L114.778 143.222C115.169 142.831 115.802 142.831 116.192 143.222L119.728 146.757C122.071 149.101 122.071 152.899 119.728 155.243V155.243C117.385 157.586 113.586 157.586 111.243 155.243V155.243Z" fill="#B77538"/>
<path d="M110 167C112.931 169.18 115.121 170.563 120 171" stroke="#82482D" stroke-width="4" stroke-linecap="round"/>
</svg>
